<?xml version="1.0" encoding="UTF-8" standalone="no"?>
<!-- Created with Inkscape (http://www.inkscape.org/) -->

<svg
   width="54.459068mm"
   height="74.277626mm"
   viewBox="0 0 54.459068 74.277626"
   version="1.1"
   id="svg1"
   inkscape:version="1.4.2 (f4327f4, 2025-05-13)"
   sodipodi:docname="logomentoriav2.svg"
   xmlns:inkscape="http://www.inkscape.org/namespaces/inkscape"
   xmlns:sodipodi="http://sodipodi.sourceforge.net/DTD/sodipodi-0.dtd"
   xmlns="http://www.w3.org/2000/svg"
   xmlns:svg="http://www.w3.org/2000/svg">
  <sodipodi:namedview
     id="namedview1"
     pagecolor="#ffffff"
     bordercolor="#000000"
     borderopacity="0.25"
     inkscape:showpageshadow="2"
     inkscape:pageopacity="0.0"
     inkscape:pagecheckerboard="0"
     inkscape:deskcolor="#d1d1d1"
     inkscape:document-units="mm"
     showguides="false"
     showgrid="false"
     inkscape:zoom="0.68862935"
     inkscape:cx="640.40256"
     inkscape:cy="564.16416"
     inkscape:window-width="1920"
     inkscape:window-height="991"
     inkscape:window-x="-9"
     inkscape:window-y="-9"
     inkscape:window-maximized="1"
     inkscape:current-layer="layer1">
    <inkscape:grid
       id="grid34"
       units="px"
       originx="-80.45998"
       originy="-134.79846"
       spacingx="0.99999998"
       spacingy="1"
       empcolor="#0099e5"
       empopacity="0.30196078"
       color="#0099e5"
       opacity="0.14901961"
       empspacing="5"
       enabled="true"
       visible="false" />
    <inkscape:page
       x="0"
       y="0"
       width="54.459068"
       height="74.277626"
       id="page2"
       margin="0"
       bleed="0" />
  </sodipodi:namedview>
  <defs
     id="defs1" />
  <g
     inkscape:groupmode="layer"
     id="layer2"
     inkscape:label="Layer 2"
     transform="translate(-80.459982,-134.79845)">
    <g
       inkscape:label="Layer 1"
       inkscape:groupmode="layer"
       id="layer1">
      <g
         id="g130"
         transform="translate(10.592625,98.943571)"
         inkscape:export-filename="g130.png"
         inkscape:export-xdpi="96"
         inkscape:export-ydpi="96">
        <path
           d="m 69.999862,44.999837 v 9.999907 h 9.999906 v -9.999907 z"
           style="fill:#d1c4e9;fill-opacity:1;stroke:#d1c4e9;stroke-width:0.264999;stroke-opacity:1"
           id="path121" />
        <g
           id="g1"
           style="fill:#6a0dad;fill-opacity:1;stroke:#6a0dad;stroke-opacity:1">
          <path
             d="M 119.99991,41.777812 115.00022,43.999898 110,41.777812 v 8.222237 h 9.99991 z"
             style="display:inline;fill:#6a0dad;fill-opacity:1;stroke:#6a0dad;stroke-width:0.264999;stroke-opacity:1"
             id="path122" />
          <path
             d="m 115.00022,35.99987 -8.99997,4.000272 3.99975,1.77767 5.00022,2.222086 4.99969,-2.222086 4.00027,-1.77767 z"
             style="display:inline;fill:#6a0dad;fill-opacity:1;stroke:#6a0dad;stroke-width:0.264999;stroke-opacity:1"
             id="path123" />
        </g>
        <path
           d="M 79.999768,74.654875 C 74.583249,73.49443 70.475708,71.534013 69.999862,70.393119 V 110 h 9.999906 z"
           style="fill:#008080;stroke:#008080;stroke-width:0.264999"
           id="path124"
           sodipodi:nodetypes="ccccc" />
        <path
           d="m 110,54.999998 c -4.82664,17.507085 -19.829164,15.315663 -29.999998,11 -5.339342,-2.265576 -9.383638,-6.318843 -10,-7 l -1.4e-4,11.393121 c 0.475846,1.140894 4.583387,3.101311 9.999906,4.261756 v -0.02842 c 0.03583,0.01748 0.07378,0.03499 0.113688,0.05271 11.230832,2.374828 27.982354,1.284813 29.754254,-17.563786 z"
           style="fill:#d1c4e9;fill-opacity:1;stroke:#d1c4e9;stroke-width:0.264999;stroke-opacity:1"
           id="path125"
           sodipodi:nodetypes="csccccccc" />
        <path
           style="display:none;fill:#37abc8;fill-opacity:1;stroke:#37abc8;stroke-width:0.264999;stroke-dasharray:none;stroke-opacity:1"
           d="m 124,39.999999 v 9"
           id="path126" />
        <path
           style="display:inline;fill:#6a0dad;fill-opacity:1;stroke:#6a0dad;stroke-width:0.135321;stroke-dasharray:none;stroke-opacity:1"
           d="M 70.000002,90.403308 V 70.775133 l 0.638304,0.496234 c 1.352239,1.051267 4.793106,2.456106 7.928395,3.237008 l 1.51177,0.376534 v 17.573289 17.573292 h -5.039236 -5.039233 z"
           id="path127"
           sodipodi:nodetypes="ccsscccccc" />
        <path
           style="display:none;fill:#6a0dad;fill-opacity:1;stroke:#6a0dad;stroke-width:0.727223;stroke-dasharray:none;stroke-opacity:1"
           d="m 416.25362,173.95149 c 0.20452,-14.45926 0.16994,-14.86786 -1.3806,-16.31241 -0.87471,-0.81492 -1.86763,-1.31031 -2.2065,-1.10088 -0.33886,0.20943 -0.61612,-0.0197 -0.61612,-0.50916 0,-0.48947 -0.20479,-0.68515 -0.45509,-0.43485 -0.25031,0.2503 -1.47557,-0.0892 -2.7228,-0.75435 -1.24724,-0.6652 -2.51276,-1.14227 -2.81227,-1.06016 -0.29951,0.0821 -0.54456,-0.17746 -0.54456,-0.5768 0,-0.39934 -0.24505,-0.67248 -0.54456,-0.60697 -1.06206,0.23229 -4.59842,-1.02679 -4.14827,-1.47695 0.25155,-0.25155 0.67519,-0.47105 0.94142,-0.48779 0.26623,-0.0167 1.54594,-0.59692 2.84381,-1.28929 1.29787,-0.69237 2.35976,-1.07332 2.35976,-0.84656 0,0.22676 1.47031,-0.44937 3.26736,-1.50251 1.79705,-1.05314 3.26736,-1.70661 3.26736,-1.45216 0,0.25446 1.47031,-0.39902 3.26736,-1.45216 1.79705,-1.05314 3.26736,-1.70661 3.26736,-1.45216 0,0.25446 1.47031,-0.39902 3.26736,-1.45216 1.79705,-1.05314 3.26736,-1.70661 3.26736,-1.45216 0,0.25446 1.47031,-0.39902 3.26736,-1.45216 1.79705,-1.05314 3.27237,-1.6387 3.27848,-1.30124 0.006,0.33745 0.28949,0.17432 0.62973,-0.36252 0.50672,-0.79952 1.06287,-0.73968 3.07472,0.3308 1.35086,0.71878 2.70116,1.2397 3.00067,1.15759 0.29951,-0.0821 0.54456,0.23191 0.54456,0.69781 0,0.46591 0.2048,0.6423 0.4551,0.392 0.2503,-0.2503 1.47556,0.0892 2.7228,0.75435 1.24724,0.6652 2.51275,1.14227 2.81226,1.06016 0.29951,-0.0821 0.54456,0.23191 0.54456,0.69781 0,0.46591 0.2048,0.6423 0.4551,0.392 0.2503,-0.2503 1.47556,0.0892 2.7228,0.75435 1.24724,0.6652 2.51275,1.14227 2.81226,1.06016 0.29951,-0.0821 0.54456,0.23191 0.54456,0.69781 0,0.46591 0.2048,0.6423 0.4551,0.392 0.2503,-0.2503 1.47556,0.0892 2.7228,0.75435 1.24724,0.6652 2.51275,1.14227 2.81226,1.06016 0.29951,-0.0821 0.54456,0.23191 0.54456,0.69781 0,0.46591 0.2048,0.6423 0.4551,0.392 0.2503,-0.2503 1.47556,0.0892 2.7228,0.75435 1.24724,0.6652 2.51275,1.14227 2.81226,1.06016 0.29951,-0.0821 0.54456,0.19674 0.54456,0.61965 0,0.42291 0.30416,0.58095 0.67591,0.3512 0.37175,-0.22976 0.85526,-0.12754 1.07447,0.22714 0.38771,0.62734 -5.92649,3.47643 -7.01446,3.16506 -0.29951,-0.0857 -0.54456,0.10525 -0.54456,0.42437 0,0.57016 -5.17618,2.71631 -5.72746,2.37472 -1.11287,-0.68957 -1.51255,3.72963 -1.52222,16.83074 l -0.0111,15.06616 -18.69656,7.2e-4 -18.69656,7.3e-4 z"
           id="path128"
           transform="scale(0.26458333)"
           sodipodi:nodetypes="ssssssssssssssssssssssssssssssssssssssssssssssscccs" />
        <path
           style="display:none;fill:#165044;fill-opacity:1;stroke:#165044;stroke-width:0.257112;stroke-dasharray:none;stroke-opacity:1"
           d="m 468.36383,168.42147 c 0,-9.16576 0.0701,-16.84775 0.15582,-17.07108 0.0857,-0.22333 0.28786,-0.40607 0.44924,-0.40609 0.21783,-3e-5 0.27596,4.39799 0.22564,17.07108 -0.0592,14.90117 -0.11626,17.07112 -0.44924,17.07112 -0.33356,0 -0.38146,-2.09272 -0.38146,-16.66503 z"
           id="path129"
           transform="scale(0.26458333)" />
        <rect
           style="fill:#6a0dad;fill-opacity:1;fill-rule:nonzero;stroke:#6a0dad;stroke-width:0.264999;stroke-dasharray:none;stroke-opacity:1"
           id="rect129"
           width="10"
           height="55"
           x="110"
           y="54.999996" />
        <path
           d="m 110,54.999998 c -0.0248,0.681915 -0.0721,1.475019 -0.13229,2.115379 C 108.09581,75.963976 91.344288,77.053991 80.113456,74.679163 96.735031,79.904532 120,75.317486 120,54.999998 Z"
           style="fill:#8636a3;fill-opacity:1;stroke:#8636a3;stroke-width:0.264999;stroke-opacity:1"
           id="path130"
           sodipodi:nodetypes="ccccc" />
      </g>
    </g>
  </g>
</svg>
